<svg width="150px" height="150px" viewBox="0 0 150 150" version="1.1" xmlns="http://www.w3.org/2000/svg" xmlns:xlink="http://www.w3.org/1999/xlink">
    <title>暂无数据</title>
    <g id="页面-1" stroke="none" stroke-width="1" fill="none" fill-rule="evenodd">
        <g id="2.0物料/物料申领/我的申领/待提交备份" transform="translate(-785.000000, -380.000000)">
            <g id="暂无数据" transform="translate(785.000000, 380.000000)">
                <rect id="矩形" x="0" y="0" width="150" height="150"></rect>
                <g id="编组" transform="translate(5.000000, 30.000000)">
                    <path d="M67.5,69.5 L67.5,60.5 L77.5,60.5 L67.5,69.5 Z M64.5,80.5 L112.5,80.5 L112.5,34.5 L64.5,34.5 L64.5,80.5 Z" id="Fill-1" fill="#F3F5F8"></path>
                    <polygon id="Fill-2" fill="#FCFCFC" points="67.5 60.5 67.5 69.5 29.5 69.5 29.5 22.5 77.5 22.5 77.5 60.5"></polygon>
                    <polyline id="Stroke-3" stroke="#CDD0D6" stroke-linecap="round" stroke-linejoin="round" points="67.5 69.5 26.5 69.5 26.5 19.5 31.5 19.5"></polyline>
                    <polyline id="Stroke-4" stroke="#CDD0D6" stroke-linecap="round" stroke-linejoin="round" points="42.5 19.5 77.5 19.5 77.5 60.5"></polyline>
                    <line x1="35.5" y1="19.5" x2="37.5" y2="19.5" id="Stroke-5" stroke="#CDD0D6" stroke-linecap="round" stroke-linejoin="round"></line>
                    <polygon id="Stroke-6" stroke="#CDD0D6" stroke-linecap="round" stroke-linejoin="round" points="67.5 60.5 67.5 69.5 77.5 60.5"></polygon>
                    <g>
                        <path d="M43.5,33.5 C43.5,34.604 42.604,35.5 41.5,35.5 C40.396,35.5 39.5,34.604 39.5,33.5 C39.5,32.396 40.396,31.5 41.5,31.5 C42.604,31.5 43.5,32.396 43.5,33.5" id="Fill-7" fill="#CDD0D6"></path>
                        <path d="M63.5,33.5 C63.5,34.604 62.604,35.5 61.5,35.5 C60.396,35.5 59.5,34.604 59.5,33.5 C59.5,32.396 60.396,31.5 61.5,31.5 C62.604,31.5 63.5,32.396 63.5,33.5" id="Fill-9" fill="#CDD0D6"></path>
                        <path d="M44.5,38.5 C44.5,38.5 46.5,41.5 51.5,41.5 C56.5,41.5 58.5,38.5 58.5,38.5" id="Stroke-11" stroke="#CDD0D6" stroke-linecap="round" stroke-linejoin="round"></path>
                        <line x1="65" y1="39" x2="70" y2="44" id="Stroke-13" stroke="#CDD0D6" stroke-linecap="round" stroke-linejoin="round"></line>
                        <line x1="128.5" y1="17.5" x2="134.5" y2="17.5" id="Stroke-19" stroke="#CDD0D6" stroke-linecap="round" stroke-linejoin="round"></line>
                        <line x1="131.5" y1="20.5" x2="131.5" y2="14.5" id="Stroke-21" stroke="#CDD0D6" stroke-linecap="round" stroke-linejoin="round"></line>
                        <line x1="72.5" y1="2.5" x2="76.5" y2="2.5" id="Stroke-23" stroke="#F0F1F2" stroke-linecap="round" stroke-linejoin="round"></line>
                        <line x1="74.5" y1="4.5" x2="74.5" y2="0.5" id="Stroke-25" stroke="#F0F1F2" stroke-linecap="round" stroke-linejoin="round"></line>
                        <polyline id="Stroke-27" stroke="#CDD0D6" stroke-linecap="round" stroke-linejoin="round" points="77.5 31.5 112.5 31.5 112.5 80.5 104.5 80.5"></polyline>
                        <line x1="99.5" y1="80.5" x2="95.5" y2="80.5" id="Stroke-29" stroke="#CDD0D6" stroke-linecap="round" stroke-linejoin="round"></line>
                        <polyline id="Stroke-31" stroke="#CDD0D6" stroke-linecap="round" stroke-linejoin="round" points="90.5 80.5 61.5 80.5 61.5 69.5"></polyline>
                        <line x1="77.5" y1="38.5" x2="112.5" y2="38.5" id="Stroke-33" stroke="#CDD0D6" stroke-linecap="round" stroke-linejoin="round"></line>
                        <line x1="0.5" y1="18.5" x2="17" y2="35" id="Stroke-35" stroke="#F0F1F2" stroke-linecap="round" stroke-linejoin="round"></line>
                        <line x1="4.5" y1="37.5" x2="11" y2="44" id="Stroke-37" stroke="#F0F1F2" stroke-linecap="round" stroke-linejoin="round"></line>
                        <line x1="123.5" y1="62.5" x2="140" y2="79" id="Stroke-39" stroke="#F0F1F2" stroke-linecap="round" stroke-linejoin="round"></line>
                        <line x1="123.5" y1="48.5" x2="130" y2="55" id="Stroke-41" stroke="#F0F1F2" stroke-linecap="round" stroke-linejoin="round"></line>
                        <line x1="32.5" y1="86.5" x2="38.5" y2="86.5" id="Stroke-15" stroke="#CDD0D6" stroke-linecap="round" stroke-linejoin="round"></line>
                        <line x1="35.5" y1="89.5" x2="35.5" y2="83.5" id="Stroke-17" stroke="#CDD0D6" stroke-linecap="round" stroke-linejoin="round"></line>
                        <polyline id="路径-2" stroke="#CDD0D6" stroke-linecap="round" stroke-linejoin="round" points="65 41 67 41 67 39"></polyline>
                        <polyline id="路径-2" stroke="#CDD0D6" stroke-linecap="round" stroke-linejoin="round" points="67 43 69 43 69 41"></polyline>
                    </g>
                </g>
            </g>
        </g>
    </g>
</svg>
